<svg width="23" height="22" viewBox="0 0 23 22" fill="none"
    xmlns="http://www.w3.org/2000/svg">
    <path fill-rule="evenodd" clip-rule="evenodd" d="M0.899994 11C0.899994 4.9 5.79999 0 11.9 0C18 0 22.9 4.9 22.9 11C22.9 17.1 18 22 11.9 22C5.79999 22 0.899994 17.1 0.899994 11ZM6.89999 16L13.7 12.8L16.9 6L10.1 9.2L6.89999 16ZM13.4 11C13.4 11.8284 12.7284 12.5 11.9 12.5C11.0716 12.5 10.4 11.8284 10.4 11C10.4 10.1716 11.0716 9.5 11.9 9.5C12.7284 9.5 13.4 10.1716 13.4 11Z" fill="black" fill-opacity="0.95"/>
</svg>
