<svg width="22" height="22" viewBox="0 0 22 22" fill="none"
    xmlns="http://www.w3.org/2000/svg">
    <path fill-rule="evenodd" clip-rule="evenodd" d="M1.69998 0.5H0.199982V2V5.5V7V10V11.5V20V21.5H1.69998H19.7H21.2V20V7V5.5H19.7H3.19998V3.5H14.2H15.7V0.5H14.2H1.69998ZM3.19998 8.5V10V11.5V18.5H18.2V8.5H3.19998ZM16.7 13.5C16.7 14.3284 16.0284 15 15.2 15C14.3716 15 13.7 14.3284 13.7 13.5C13.7 12.6716 14.3716 12 15.2 12C16.0284 12 16.7 12.6716 16.7 13.5Z" fill="black" fill-opacity="0.32"/>
</svg>
